<svg width="690" height="414" viewBox="0 0 690 414" fill="none" xmlns="http://www.w3.org/2000/svg">
<path d="M476.1 172.5C476.1 244.905 417.405 303.6 345 303.6C272.596 303.6 213.9 244.905 213.9 172.5C213.9 100.095 272.596 41.4 345 41.4C417.405 41.4 476.1 100.095 476.1 172.5Z" fill="#B0907A"/>
<path d="M660.181 153.81C661.611 153.685 662.768 154.248 663.654 155.501C664.649 156.743 665.248 158.52 665.45 160.829C665.796 164.788 665.159 168.28 663.54 171.303C660.874 176.301 657.127 180.342 652.299 183.424C647.581 186.496 641.758 188.336 634.829 188.942C624.271 189.865 615.803 187.448 609.426 181.689C603.039 175.82 599.374 167.497 598.431 156.719C597.767 149.13 598.746 141.952 601.367 135.184C603.98 128.306 607.922 122.697 613.194 118.357C618.576 114.007 624.842 111.52 631.99 110.895C638.369 110.336 643.651 111.814 647.838 115.326C652.014 118.729 654.386 123.674 654.954 130.163C655.618 137.752 653.441 144.536 648.423 150.516C643.505 156.377 634.642 161.474 621.834 165.809C624.916 170.637 629.591 172.777 635.86 172.228C640.369 171.834 643.962 170.467 646.639 168.127C649.426 165.777 652.527 161.96 655.943 156.674C657.119 154.909 658.531 153.954 660.181 153.81ZM630.6 127.307C626.531 127.663 623.273 130.331 620.828 135.31C618.492 140.28 617.618 146.119 618.204 152.828L618.233 153.158C624.587 151.05 629.499 148.293 632.969 144.887C636.439 141.48 637.996 137.742 637.64 133.673C637.457 131.583 636.708 129.986 635.393 128.882C634.177 127.659 632.58 127.134 630.6 127.307Z" fill="#403F3D"/>
<path d="M574.753 194.198C563.975 195.141 555.297 192.852 548.719 187.333C542.241 181.693 538.565 173.87 537.689 163.861C536.91 154.953 537.986 146.99 540.919 139.974C543.851 132.957 547.963 127.389 553.254 123.269C558.546 119.149 564.271 116.819 570.43 116.28C576.479 115.751 581.312 117.157 584.929 120.498C588.646 123.719 590.75 128.134 591.241 133.743C591.645 138.362 590.942 142.357 589.131 145.73C587.43 149.092 584.93 150.918 581.631 151.207C579.541 151.389 577.793 151.044 576.387 150.169C575.091 149.285 574.366 147.964 574.212 146.204C574.144 145.434 574.177 144.545 574.311 143.535C574.444 142.526 574.546 141.797 574.618 141.348C575.023 139.65 575.164 138.086 575.039 136.656C574.913 135.227 574.432 134.16 573.595 133.458C572.868 132.746 571.844 132.447 570.525 132.563C567.995 132.784 565.732 134.146 563.734 136.648C561.727 139.04 560.232 142.218 559.249 146.183C558.266 150.148 557.976 154.44 558.381 159.059C559.497 171.817 565.609 177.71 576.717 176.738C581.226 176.343 585.935 174.435 590.844 171.013C595.854 167.472 600.624 162.456 605.154 155.964C606.339 154.309 607.756 153.409 609.406 153.265C610.835 153.14 611.993 153.704 612.878 154.956C613.874 156.199 614.472 157.975 614.674 160.284C615.04 164.464 614.293 167.964 612.435 170.787C607.824 177.618 602.043 183.111 595.092 187.265C588.242 191.3 581.462 193.611 574.753 194.198Z" fill="#403F3D"/>
<path d="M479.882 202.498C475.703 202.863 472.541 200.924 470.396 196.678C468.362 192.423 466.921 185.457 466.074 175.779C464.824 161.481 465.67 147.721 468.613 134.497C469.324 131.221 470.717 128.772 472.791 127.15C474.966 125.408 478.088 124.359 482.157 124.003C484.357 123.811 485.921 123.951 486.849 124.424C487.777 124.897 488.308 125.903 488.443 127.443C488.597 129.203 488.118 133.234 487.007 139.537C486.292 144.033 485.749 147.959 485.378 151.316C485.007 154.673 484.813 158.79 484.796 163.668C487.598 153.892 490.994 145.838 494.984 139.504C498.973 133.171 503.002 128.552 507.07 125.647C511.248 122.733 515.151 121.117 518.781 120.799C525.929 120.174 529.817 123.435 530.442 130.584C530.567 132.014 530.375 135.521 529.866 141.107C529.372 145.583 529.172 148.371 529.268 149.471C529.605 153.32 531.148 155.125 533.898 154.884C536.977 154.615 540.725 151.849 545.141 146.586C546.445 145.031 547.867 144.187 549.407 144.052C550.837 143.927 551.994 144.49 552.88 145.743C553.865 146.876 554.45 148.487 554.632 150.576C554.988 154.646 554.168 157.931 552.17 160.433C549.37 163.892 545.981 166.959 542.004 169.634C538.127 172.19 533.879 173.67 529.26 174.074C523.431 174.584 518.847 173.489 515.508 170.789C512.278 168.079 510.442 164.195 510 159.136C509.855 157.486 509.876 155.822 510.062 154.143C510.089 151.925 510.069 150.43 510.002 149.66C509.848 147.901 509.166 147.074 507.956 147.18C506.307 147.324 504.271 149.386 501.848 153.366C499.526 157.226 497.31 162.296 495.2 168.576C493.09 174.856 491.503 181.422 490.44 188.275C489.683 193.55 488.561 197.195 487.075 199.209C485.689 201.103 483.291 202.199 479.882 202.498Z" fill="#403F3D"/>
<path d="M408.795 208.717C403.846 209.15 399.579 207.252 395.995 203.021C392.512 198.672 390.472 193.087 389.875 186.269C389.153 178.02 389.044 170.438 389.547 163.523C390.041 156.499 391.216 149.026 393.072 141.106C393.883 137.711 395.216 135.211 397.07 133.608C398.925 132.005 401.997 131.016 406.286 130.641C408.706 130.429 410.389 130.67 411.336 131.363C412.393 132.046 412.989 133.158 413.124 134.697C413.201 135.577 412.856 138.6 412.089 143.765C411.345 147.93 410.787 151.691 410.416 155.048C409.227 166.789 408.801 174.584 409.137 178.433C409.34 180.742 409.759 182.368 410.395 183.31C411.022 184.142 411.94 184.504 413.15 184.399C414.8 184.254 416.69 182.427 418.821 178.916C421.062 175.395 423.264 170.16 425.426 163.21C427.699 156.252 429.727 147.762 431.51 137.743C432.101 134.367 433.214 131.887 434.849 130.303C436.593 128.71 439.28 127.755 442.909 127.437C445.439 127.216 447.227 127.392 448.275 127.965C449.313 128.428 449.904 129.485 450.048 131.134C450.289 133.884 449.573 141.538 447.901 154.096C446.054 168.443 445.274 177.266 445.563 180.566C445.746 182.655 446.33 184.266 447.315 185.399C448.292 186.422 449.494 186.871 450.924 186.746C453.124 186.553 455.593 185.007 458.331 182.108C461.17 179.089 464.855 174.334 469.384 167.842C470.57 166.187 471.987 165.288 473.637 165.143C475.066 165.018 476.224 165.582 477.109 166.834C478.104 168.077 478.703 169.853 478.905 172.163C479.29 176.562 478.544 180.063 476.666 182.665C472.446 188.908 467.751 194.139 462.579 198.36C457.517 202.571 451.522 204.979 444.593 205.585C439.314 206.047 435.232 204.354 432.346 200.506C429.571 196.648 427.861 191.035 427.216 183.667C426.001 191.309 423.701 197.328 420.318 201.725C416.925 206.011 413.084 208.342 408.795 208.717Z" fill="#403F3D"/>
<path d="M397.17 157.87C398.6 157.745 399.762 158.363 400.657 159.726C401.552 161.088 402.096 162.869 402.288 165.069C402.75 170.348 401.43 173.622 398.327 174.89C391.93 177.777 384.787 179.732 376.897 180.755C375.616 190.176 372.141 197.961 366.473 204.108C360.795 210.146 354.052 213.507 346.244 214.19C339.645 214.767 333.841 213.668 328.833 210.892C323.935 208.107 320.045 204.181 317.164 199.113C314.282 194.046 312.572 188.433 312.033 182.274C311.302 173.916 312.247 166.352 314.869 159.584C317.481 152.707 321.433 147.208 326.724 143.088C332.006 138.858 338.056 136.444 344.875 135.848C353.234 135.116 360.197 137.444 365.767 142.83C371.436 148.097 375.081 154.926 376.702 163.318C381.842 162.535 387.905 160.897 394.89 158.402C395.75 158.105 396.511 157.927 397.17 157.87ZM346.033 196.588C349.553 196.28 352.452 194.585 354.732 191.505C357.121 188.414 358.52 184.136 358.928 178.67C355.317 176.659 352.413 173.865 350.216 170.289C348.129 166.704 346.903 162.822 346.537 158.642C346.383 156.883 346.394 155.109 346.57 153.32L345.745 153.392C341.346 153.777 337.849 156.244 335.255 160.793C332.761 165.223 331.851 171.287 332.525 178.985C333.054 185.034 334.613 189.552 337.201 192.54C339.9 195.517 342.844 196.867 346.033 196.588Z" fill="#403F3D"/>
<path d="M278.137 223.805C272.418 224.306 267.904 223.371 264.593 221.001C261.393 218.621 259.648 215.781 259.36 212.482C259.109 209.622 259.938 207.056 261.845 204.784C263.751 202.512 266.739 201.197 270.809 200.841C272.238 200.716 273.903 200.737 275.801 200.903C277.8 200.95 279.299 200.985 280.299 201.009C279.938 198.159 279.043 195.522 277.612 193.098C276.291 190.665 274.649 188.37 272.687 186.215C270.716 183.949 268.884 182.004 267.19 180.379C264.348 187.166 261.41 192.853 258.376 197.441C255.452 202.019 252.179 206.405 248.556 210.601C246.75 212.754 244.747 213.927 242.547 214.119C240.787 214.273 239.305 213.793 238.099 212.68C236.884 211.456 236.194 209.91 236.031 208.04C235.838 205.84 236.43 203.738 237.806 201.734L239.72 198.907C245.115 190.899 249.14 184.341 251.796 179.232C253.387 175.879 255.216 171.453 257.284 165.952C259.342 160.342 261.33 154.571 263.249 148.641C264.916 143.619 269.048 140.819 275.647 140.242C278.726 139.972 280.895 140.06 282.153 140.504C283.411 140.948 284.093 141.775 284.199 142.985C284.256 143.644 284.128 144.709 283.813 146.177C283.498 147.645 283.018 149.128 282.374 150.625C280.74 154.757 280.044 158.198 280.285 160.948C280.429 162.597 281.138 164.364 282.411 166.247C283.793 168.121 285.825 170.437 288.504 173.195C292.427 177.506 295.413 181.234 297.462 184.38C299.61 187.406 300.853 190.843 301.19 194.692C301.286 195.792 301.311 197.342 301.264 199.34C306.47 196.779 312.308 190.672 318.778 181.019C319.963 179.364 321.38 178.464 323.03 178.319C324.46 178.194 325.617 178.758 326.503 180.01C327.498 181.253 328.097 183.029 328.299 185.339C328.664 189.518 327.918 193.019 326.059 195.841C321.157 203.141 316.287 208.277 311.449 211.249C306.711 214.102 300.668 215.961 293.319 216.825C289.247 220.949 284.186 223.276 278.137 223.805Z" fill="#403F3D"/>
<path d="M252.658 184.476C254.088 184.351 255.245 184.915 256.131 186.167C257.126 187.41 257.725 189.186 257.927 191.496C258.311 195.895 257.565 199.396 255.687 201.998C252.051 207.303 246.676 212.373 239.563 217.206C232.56 222.03 224.824 224.812 216.356 225.553C204.808 226.564 195.57 224.213 188.643 218.503C181.716 212.792 177.776 204.492 176.823 193.604C176.159 186.016 177.138 178.838 179.76 172.07C182.372 165.192 186.314 159.583 191.586 155.243C196.969 150.893 203.234 148.406 210.383 147.78C216.762 147.222 222.044 148.7 226.23 152.212C230.407 155.615 232.779 160.56 233.346 167.049C234.01 174.638 231.833 181.422 226.815 187.402C221.898 193.263 213.09 198.355 200.391 202.68C203.583 207.499 209.029 209.571 216.727 208.898C221.676 208.465 227.136 206.269 233.107 202.311C239.178 198.234 244.277 193.189 248.406 187.176C249.591 185.52 251.008 184.621 252.658 184.476ZM208.993 164.193C204.923 164.549 201.666 167.216 199.22 172.196C196.885 177.165 196.01 183.005 196.597 189.713L196.626 190.043C202.98 187.936 207.892 185.179 211.362 181.772C214.832 178.366 216.389 174.628 216.033 170.559C215.85 168.469 215.101 166.872 213.785 165.768C212.57 164.545 210.972 164.02 208.993 164.193Z" fill="#403F3D"/>
<path d="M191.066 189.865C192.496 189.74 193.654 190.303 194.539 191.556C195.534 192.799 196.133 194.575 196.335 196.884C196.71 201.174 195.964 204.674 194.095 207.387C189.374 214.227 184.473 219.643 179.392 223.634C174.302 227.515 168.072 229.778 160.703 230.422C153.555 231.048 147.282 229.657 141.886 226.25C136.601 222.834 131.294 216.649 125.967 207.695C121.683 200.534 118.343 195.285 115.945 191.949C113.538 188.502 111.222 186.101 108.998 184.744C106.884 183.377 104.327 182.659 101.329 182.589C101.091 184.937 100.462 192.306 99.4399 204.697C99.0412 210.273 98.7848 213.675 98.6707 214.904C98.1578 221.709 96.4104 227.071 93.4286 230.989C90.4371 234.797 85.5869 236.994 78.8782 237.581C71.5095 238.226 64.7781 236.654 58.6839 232.865C52.69 228.956 47.8166 223.288 44.0636 215.858C40.301 208.319 37.9867 199.601 37.1207 189.702C35.5043 171.226 37.2985 155 42.5034 141.024C47.8184 127.039 55.9419 116.022 66.8739 107.973C77.9064 99.8039 91.0112 95.0557 106.188 93.7278C116.747 92.8041 125.739 93.6243 133.167 96.1883C140.595 98.7522 146.259 102.69 150.159 108C154.169 113.301 156.482 119.471 157.098 126.51C157.637 132.669 156.681 138.848 154.231 145.046C151.882 151.125 147.99 156.675 142.555 161.694C137.121 166.713 130.321 170.688 122.155 173.619C127.559 174.587 131.83 176.54 134.969 179.479C138.107 182.419 141.375 186.843 144.774 192.751C148.431 199.081 151.878 203.655 155.117 206.475C158.466 209.285 162.12 210.517 166.079 210.17C169.599 209.862 172.852 208.414 175.839 205.826C178.817 203.127 182.475 198.706 186.814 192.564C187.999 190.909 189.417 190.009 191.066 189.865ZM78.5488 184.415C74.8095 184.743 72.148 184.089 70.5643 182.454C69.0906 180.81 68.2575 178.888 68.0651 176.689C67.8342 174.049 68.4762 171.887 69.9912 170.203C71.6161 168.51 73.5284 167.567 75.728 167.374L79.8523 167.013C80.669 156.081 81.5056 146.644 82.3622 138.7C83.1665 131.427 87.473 127.448 95.2815 126.765C101.55 126.217 104.93 128.747 105.421 134.356C105.527 135.566 105.554 136.505 105.501 137.175L102.948 164.993C108.858 164.143 114.122 162.242 118.74 159.289C123.468 156.326 127.064 152.466 129.529 147.706C132.104 142.937 133.141 137.693 132.641 131.974C132.035 125.046 129.194 119.808 124.118 116.263C119.043 112.717 111.941 111.344 102.813 112.143C92.0345 113.085 82.812 116.607 75.145 122.709C67.5783 128.69 62.0022 137.157 58.4167 148.11C54.8217 158.952 53.6832 171.907 55.0014 186.974C55.6172 194.013 56.8613 199.999 58.7337 204.933C60.606 209.867 62.6977 213.508 65.0086 215.854C67.3195 218.201 69.4098 219.293 71.2795 219.129C72.7092 219.004 73.8014 218.188 74.5562 216.681C75.4209 215.165 75.9887 212.788 76.2596 209.551L78.5488 184.415Z" fill="#403F3D"/>
<path d="M540.982 372.6V332.455H567.093V338.551H548.255V349.45H565.74V355.546H548.255V366.504H567.249V372.6H540.982Z" fill="#403F3D"/>
<path d="M524.192 343.491C524.009 341.779 523.238 340.446 521.879 339.492C520.533 338.538 518.782 338.061 516.625 338.061C515.109 338.061 513.809 338.29 512.724 338.747C511.64 339.204 510.81 339.825 510.235 340.609C509.66 341.393 509.366 342.288 509.353 343.295C509.353 344.131 509.542 344.856 509.921 345.471C510.313 346.085 510.843 346.607 511.509 347.039C512.176 347.457 512.914 347.81 513.724 348.097C514.534 348.385 515.351 348.627 516.174 348.823L519.938 349.763C521.454 350.116 522.911 350.593 524.309 351.194C525.721 351.796 526.982 352.553 528.093 353.468C529.216 354.383 530.105 355.487 530.759 356.781C531.412 358.075 531.739 359.591 531.739 361.329C531.739 363.681 531.138 365.752 529.935 367.543C528.733 369.32 526.995 370.712 524.721 371.718C522.46 372.711 519.722 373.208 516.508 373.208C513.384 373.208 510.673 372.724 508.373 371.757C506.086 370.79 504.295 369.379 503.002 367.523C501.721 365.667 501.028 363.407 500.924 360.741H508.079C508.183 362.139 508.614 363.302 509.372 364.23C510.13 365.158 511.117 365.85 512.332 366.308C513.561 366.765 514.933 366.994 516.449 366.994C518.03 366.994 519.415 366.759 520.605 366.288C521.807 365.805 522.748 365.138 523.427 364.289C524.107 363.426 524.453 362.42 524.466 361.27C524.453 360.225 524.146 359.362 523.545 358.682C522.944 357.99 522.101 357.415 521.016 356.957C519.945 356.487 518.69 356.069 517.253 355.703L512.685 354.527C509.379 353.677 506.765 352.39 504.844 350.665C502.936 348.927 501.982 346.621 501.982 343.746C501.982 341.38 502.623 339.309 503.903 337.532C505.197 335.754 506.955 334.376 509.176 333.396C511.398 332.402 513.914 331.906 516.723 331.906C519.572 331.906 522.068 332.402 524.211 333.396C526.368 334.376 528.06 335.741 529.288 337.492C530.517 339.23 531.151 341.23 531.19 343.491H524.192Z" fill="#403F3D"/>
<path d="M484.437 332.455H491.71V358.682C491.71 361.557 491.03 364.086 489.671 366.269C488.325 368.451 486.43 370.156 483.987 371.385C481.543 372.6 478.687 373.208 475.42 373.208C472.14 373.208 469.278 372.6 466.835 371.385C464.391 370.156 462.496 368.451 461.15 366.269C459.804 364.086 459.131 361.557 459.131 358.682V332.455H466.403V358.075C466.403 359.747 466.769 361.237 467.501 362.544C468.246 363.851 469.291 364.877 470.637 365.622C471.983 366.353 473.578 366.719 475.42 366.719C477.263 366.719 478.857 366.353 480.203 365.622C481.562 364.877 482.608 363.851 483.34 362.544C484.071 361.237 484.437 359.747 484.437 358.075V332.455Z" fill="#403F3D"/>
<path d="M449.495 352.527C449.495 356.853 448.685 360.558 447.064 363.642C445.457 366.713 443.261 369.065 440.478 370.699C437.708 372.332 434.565 373.149 431.049 373.149C427.534 373.149 424.384 372.332 421.601 370.699C418.831 369.052 416.635 366.693 415.015 363.622C413.407 360.538 412.604 356.84 412.604 352.527C412.604 348.202 413.407 344.503 415.015 341.432C416.635 338.348 418.831 335.99 421.601 334.356C424.384 332.723 427.534 331.906 431.049 331.906C434.565 331.906 437.708 332.723 440.478 334.356C443.261 335.99 445.457 338.348 447.064 341.432C448.685 344.503 449.495 348.202 449.495 352.527ZM442.183 352.527C442.183 349.482 441.706 346.915 440.752 344.824C439.811 342.72 438.505 341.132 436.832 340.06C435.159 338.976 433.232 338.433 431.049 338.433C428.867 338.433 426.939 338.976 425.267 340.06C423.594 341.132 422.281 342.72 421.327 344.824C420.386 346.915 419.915 349.482 419.915 352.527C419.915 355.572 420.386 358.147 421.327 360.251C422.281 362.342 423.594 363.929 425.267 365.014C426.939 366.086 428.867 366.621 431.049 366.621C433.232 366.621 435.159 366.086 436.832 365.014C438.505 363.929 439.811 362.342 440.752 360.251C441.706 358.147 442.183 355.572 442.183 352.527Z" fill="#403F3D"/>
<path d="M369.787 372.6V332.455H377.06V349.45H395.662V332.455H402.954V372.6H395.662V355.546H377.06V372.6H369.787Z" fill="#403F3D"/>
<path d="M317.045 372.6V332.455H343.155V338.551H324.317V349.45H341.803V355.546H324.317V366.504H343.312V372.6H317.045Z" fill="#403F3D"/>
<path d="M280.756 372.6V332.455H306.866V338.551H288.028V349.45H305.514V355.546H288.028V366.504H307.023V372.6H280.756Z" fill="#403F3D"/>
<path d="M245.652 372.6V332.455H271.371V338.551H252.925V349.45H269.606V355.546H252.925V372.6H245.652Z" fill="#403F3D"/>
<path d="M210.549 372.6V332.455H236.267V338.551H217.821V349.45H234.503V355.546H217.821V372.6H210.549Z" fill="#403F3D"/>
<path d="M200.913 352.527C200.913 356.853 200.103 360.558 198.482 363.642C196.875 366.713 194.679 369.065 191.896 370.699C189.125 372.332 185.983 373.149 182.467 373.149C178.952 373.149 175.802 372.332 173.019 370.699C170.248 369.052 168.053 366.693 166.433 363.622C164.825 360.538 164.021 356.84 164.021 352.527C164.021 348.202 164.825 344.503 166.433 341.432C168.053 338.348 170.248 335.99 173.019 334.356C175.802 332.723 178.952 331.906 182.467 331.906C185.983 331.906 189.125 332.723 191.896 334.356C194.679 335.99 196.875 338.348 198.482 341.432C200.103 344.503 200.913 348.202 200.913 352.527ZM193.601 352.527C193.601 349.482 193.124 346.915 192.17 344.824C191.229 342.72 189.923 341.132 188.25 340.06C186.577 338.976 184.65 338.433 182.467 338.433C180.285 338.433 178.357 338.976 176.685 340.06C175.012 341.132 173.698 342.72 172.744 344.824C171.804 346.915 171.333 349.482 171.333 352.527C171.333 355.572 171.804 358.147 172.744 360.251C173.698 362.342 175.012 363.929 176.685 365.014C178.357 366.086 180.285 366.621 182.467 366.621C184.65 366.621 186.577 366.086 188.25 365.014C189.923 363.929 191.229 362.342 192.17 360.251C193.124 358.147 193.601 355.572 193.601 352.527Z" fill="#403F3D"/>
<path d="M155.62 346H148.289C148.08 344.798 147.695 343.732 147.133 342.805C146.571 341.864 145.872 341.067 145.035 340.413C144.199 339.76 143.245 339.27 142.173 338.943C141.115 338.603 139.971 338.433 138.743 338.433C136.56 338.433 134.626 338.982 132.941 340.08C131.255 341.165 129.935 342.759 128.981 344.863C128.027 346.954 127.55 349.509 127.55 352.527C127.55 355.598 128.027 358.186 128.981 360.29C129.948 362.381 131.268 363.962 132.941 365.034C134.626 366.092 136.554 366.621 138.723 366.621C139.925 366.621 141.049 366.465 142.095 366.151C143.153 365.824 144.101 365.347 144.937 364.72C145.787 364.093 146.499 363.322 147.074 362.407C147.662 361.492 148.067 360.447 148.289 359.271L155.62 359.31C155.346 361.218 154.751 363.008 153.837 364.681C152.935 366.354 151.752 367.83 150.289 369.111C148.825 370.379 147.113 371.372 145.153 372.09C143.193 372.796 141.017 373.149 138.625 373.149C135.097 373.149 131.947 372.332 129.177 370.699C126.406 369.065 124.224 366.706 122.63 363.622C121.035 360.538 120.238 356.84 120.238 352.527C120.238 348.202 121.042 344.503 122.649 341.432C124.257 338.348 126.446 335.99 129.216 334.356C131.987 332.723 135.123 331.906 138.625 331.906C140.86 331.906 142.938 332.219 144.859 332.847C146.78 333.474 148.492 334.395 149.995 335.611C151.497 336.813 152.732 338.29 153.699 340.041C154.679 341.779 155.32 343.765 155.62 346Z" fill="#403F3D"/>
</svg>
